<svg xmlns="http://www.w3.org/2000/svg" viewBox="0 0 512 512">
  <g fill="none" stroke="currentColor" stroke-width="8" stroke-linecap="round" stroke-linejoin="round">
    <path d="M 89.1 403.09 C 90.73 400.03 91.97 397.36 94.12 394.65 C 96.03 392.23 97.82 390.36 100.09 388.27 C 103.93 384.75 107.89 382.01 112.41 378.96 C 115.68 376.75 118.42 374.9 121.8 372.85 C 124.56 371.17 126.95 369.92 129.76 368.35 C 132.17 367 134.21 365.94 136.64 364.64 C 139.49 363.13 141.64 361.42 144.62 360.19 C 148.06 358.78 151.23 358.55 154.87 357.83"/>
    <path d="M 95.47 164.07 L 103.25 162.65"/>
    <path d="M 96.18 209.33 C 95.72 204.06 95.85 199.35 97.81 194.44 C 100.22 188.44 103.98 183.67 107 178.59 C 108.64 175.83 109.89 173.43 111.03 170.43"/>
    <path d="M 96.88 209.33 C 101.63 207.68 105.32 205.56 109.61 202.96"/>
    <path d="M 103.25 162.65 C 105.07 160.33 106.75 158.48 109.04 156.62 C 113.06 153.35 116.68 149.94 120.93 146.39"/>
    <path d="M 103.25 162.65 C 105.56 165.55 107.88 167.77 111.03 169.72"/>
    <path d="M 107.49 241.86 C 106.63 235.16 106.9 229.21 108.95 222.77 C 110.57 217.67 113.07 213.82 115.98 209.33"/>
    <path d="M 111.73 169.72 L 115.98 168.31"/>
    <path d="M 120.93 243.98 C 121.02 246.84 120.91 249.28 121.56 252.06 C 122.39 255.6 123.85 258.34 125.59 261.53 C 127.14 264.36 128.46 266.78 130.62 269.19 C 132.69 271.51 134.8 273.09 137.19 275.09"/>
    <path d="M 125.88 136.49 C 127.91 132.33 129.65 128.79 132.28 125.04 C 133.93 122.69 135.8 120.46 137.34 118.68 C 139.89 115.76 143.04 112.52 146.55 109.6 C 149.53 107.12 154.1 103.76 157.32 101.58 C 159.83 99.88 162.01 98.61 164.59 97.02 C 168.93 94.35 172.98 92 177.86 89.92 C 180.64 88.74 184.13 87.37 187.67 86.38 C 192.92 84.92 197.52 84.44 202.96 84.15"/>
    <path d="M 149.22 396.73 C 149.77 392.03 150.25 387.96 151.12 383.44 C 151.64 380.7 152.27 378.45 152.87 375.72 C 153.46 372.99 154.11 370.74 154.57 367.98 C 155.11 364.67 155.21 361.87 155.58 358.54"/>
    <path d="M 152.75 212.86 C 155.64 210.43 157.87 208.19 160.55 205.53 C 162.63 203.46 164.55 201.9 166.9 200.13"/>
    <path d="M 155.58 286.41 C 157.69 289.77 159.08 293.32 162.56 295.22 C 165.66 296.91 169.13 295.47 172.45 296.66 C 175.28 297.67 177.14 299.56 179.62 301.26"/>
    <path d="M 155.58 357.13 C 157.58 354.01 158.72 351.11 160.51 347.87 C 163.18 342.99 166.82 339.73 171.18 336.28 C 175.91 332.53 180.73 329.46 186.02 327.77 C 188.93 326.85 191.48 326.58 194.48 326.01"/>
    <path d="M 158.41 178.21 C 161.88 175.63 164.91 173.54 167.73 170.27 C 169.57 168.14 170.75 166.08 172.3 163.74 C 174.99 159.71 177.67 155.99 180.22 151.58 C 181.83 148.79 183.06 146.4 184.57 143.56"/>
    <path d="M 160.53 251.76 C 165.86 252.13 169.4 256.64 172.55 260.95"/>
    <path d="M 166.19 234.78 C 163.04 234.15 160.69 233.2 157.14 233.88 C 154.79 234.32 152.13 235.39 150 237.16 C 148.07 238.78 146.48 240.96 145.4 243.5 C 144.48 245.68 143.75 248.46 143.68 251.27 C 143.62 253.91 144.02 256.89 144.99 259.76 C 145.97 262.65 147.72 266.13 150.14 268.94 C 152.16 271.27 155.27 273.68 158.09 275.19 C 160.38 276.42 163.19 277.44 166.17 277.79 C 171.03 278.38 175.37 277.25 180.33 276.51"/>
    <path d="M 167.6 199.43 C 168.83 193.8 170.09 189.07 172.55 183.87"/>
    <path d="M 167.6 200.13 C 172.52 201.16 173.97 207.84 173.97 212.86"/>
    <path d="M 173.97 214.28 C 174.53 219.08 174.37 223.15 175.07 227.93 C 175.69 232.26 177.2 235.7 178.92 239.73"/>
    <path d="M 181.04 276.51 C 183.53 280.62 185.58 284.11 187.45 288.54 C 188.78 291.7 189.61 294.44 190.64 297.71 C 191.53 300.55 192.39 302.89 193.1 305.78 C 193.88 308.93 194.46 311.59 194.96 314.8 C 195.58 318.71 195.36 322.06 195.18 326.01"/>
    <path d="M 186.7 163.36 L 192.35 158.41"/>
    <path d="M 190.23 368.44 C 188.29 365.05 186.76 361.98 186.28 358.1 C 185.86 354.75 185.73 351.84 186.37 348.52 C 187.24 343.95 190.91 340.56 195.18 338.74"/>
    <path d="M 190.23 369.15 C 190.23 373.36 190.1 376.9 190.69 381.07 C 191.11 384.08 191.91 386.51 192.49 389.5 C 193.21 393.19 193.68 396.3 194.4 399.99 C 195.34 404.83 196.21 408.84 197.14 413.67 C 197.82 417.15 198.22 420.09 198.72 423.6"/>
    <path d="M 190.94 369.15 C 193.87 369.83 196.39 370.23 199.19 371.34 C 202.4 372.62 204.81 374.28 208 375.58 C 211.84 377.16 215.14 378.27 219.16 379.25 C 221.92 379.91 224.3 380.08 227.11 380.48 C 231.13 381.04 234.45 381.94 238.51 381.98 C 244.49 382.03 249.47 381.12 255.36 380.03 C 260.57 379.07 264.79 377.53 269.67 375.46 C 274.34 373.48 277.91 371.12 282.34 368.65 C 285.56 366.87 288.51 365.84 292.07 364.91"/>
    <path d="M 192.35 157.7 C 192.49 153.99 193.14 150.77 194.84 147.46 C 197.24 142.79 199.75 138.87 201.77 134.28 C 202.97 131.58 203.93 129.31 205.08 126.59"/>
    <path d="M 193.06 157.7 L 195.18 155.58"/>
    <path d="M 193.06 158.41 C 198.81 157.95 202.73 156.38 208.28 152.44 C 213.28 148.88 218.37 145.3 222.29 142.14 C 226.07 139.1 229.76 136.03 232.61 133.05 C 235.15 130.39 238.1 126.81 240.19 122.83 C 241.45 120.43 242.62 117.47 243.98 114.56"/>
    <path d="M 195.18 154.87 L 195.89 155.58"/>
    <path d="M 195.18 326.72 C 195.18 330.72 195.38 334.07 195.89 338.03"/>
    <path d="M 195.89 338.74 L 197.3 343.69"/>
    <path d="M 214.28 86.28 C 217.64 83.75 220.44 81.61 224.08 79.52 C 227.67 77.47 230.74 75.91 234.35 73.9 C 236.96 72.44 239.15 71.25 241.78 69.85 C 246.59 67.29 251.63 64.96 257.41 63.65"/>
    <path d="M 214.98 179.62 C 216.66 177.19 217.91 174.82 220.39 173.2 C 222.84 171.61 225.53 171.61 228.42 171.14"/>
    <path d="M 236.2 296.31 C 240.69 297.48 244.41 298.63 249 299.28 C 253.74 299.96 257.72 300.36 262.49 300.61 C 269.42 300.97 275.22 300.55 282.17 300.55"/>
    <path d="M 238.32 195.18 C 239.23 198.29 240.15 200.91 241.86 203.67"/>
    <path d="M 248.93 93.35 L 252.46 91.23"/>
    <path d="M 253.17 90.52 C 254.35 84.63 256.19 79.85 257.62 74.1 C 258.51 70.51 258.2 67.34 258.12 63.65"/>
    <path d="M 253.88 91.23 C 259.3 91.23 264.15 90.72 269.24 91.43 C 272.2 91.85 275.11 92.9 277.36 93.88 C 279.9 94.98 282.28 96.45 284.14 97.85 C 287.48 100.35 289.2 102.55 292.7 106.01 C 294.76 108.04 296.34 110.04 298.89 111.4 C 302.81 113.49 306.8 113.59 311.22 113.85 C 314.53 114.05 317.31 112.46 319.14 114.59 C 321.03 116.79 319.08 120.61 317.98 122.71 C 316.16 126.16 313.23 128.08 310.45 130.83"/>
    <path d="M 268.73 123.76 C 273.42 124.81 277.33 126.18 281.43 128.69 C 285.66 131.28 289.02 133.76 292.7 137.09 C 295.06 139.22 296.92 141.16 298.87 143.68 C 301.13 146.61 302.22 149.59 304.22 152.7 C 306.02 155.51 308.32 157.37 311.16 159.12"/>
    <path d="M 270.85 252.46 C 273.54 252.45 275.79 252.42 278.46 252.14 C 281.87 251.79 284.66 250.94 287.87 249.74 C 290.42 248.78 292.41 247.62 294.72 246.16 C 297.01 244.72 298.54 242.98 300.55 241.15"/>
    <path d="M 275.8 154.17 C 279.35 151.8 282.88 150.39 287.12 149.92"/>
    <path d="M 275.8 190.94 C 277.29 193.28 278.51 195.25 280.14 197.5 C 282.26 200.43 284.43 202.59 287.14 204.97 C 289.37 206.92 292.23 207.99 293.19 210.79 C 294.28 213.95 292.13 216.93 290.65 219.93"/>
    <path d="M 282.87 300.55 C 286.25 299.68 289.72 298.95 292.49 298.24 C 295.39 297.49 298.24 296.41 300.52 295.5 C 303.94 294.13 306.94 293.12 309.92 290.96 C 313.02 288.71 316.94 284.63 319.18 281.53 C 321.61 278.16 322.93 274.88 324.55 271.06 C 326.4 266.71 328.57 260.44 329.69 255.56 C 330.8 250.74 331.48 243.97 331.72 239.48 C 331.86 236.82 331.86 233 331.72 230.27 C 331.55 227.13 331.09 222.56 330.64 219.44 C 330.29 216.97 329.56 213.48 328.88 211 C 327.8 207.09 325.53 201.37 323.83 197.58 C 321.75 192.93 318.5 186.69 316.23 181.7 C 315.09 179.19 314.04 177.45 313.19 174.49 C 311.98 170.25 311.52 165.04 311.16 159.82"/>
    <path d="M 282.87 301.26 C 282.87 304.96 282.63 308.05 282.83 311.74 C 283.1 316.75 284.22 321.2 287.12 325.3"/>
    <path d="M 283.58 424.31 C 284.34 420.66 284.99 417.62 285.63 413.95 C 286.24 410.5 286.79 407.63 287.46 404.19 C 288.05 401.22 288.52 398.73 289.07 395.75 C 289.67 392.54 290.27 389.89 290.87 386.68 C 291.43 383.7 291.98 381.22 292.44 378.22 C 293 374.56 292.84 371.44 292.77 367.73"/>
    <path d="M 287.82 326.01 C 288.05 330.43 287.96 334.53 290.27 338.3 C 292.26 341.54 294.86 343.97 295.52 347.72 C 296 350.48 296.25 352.87 296.01 355.66 C 295.71 359.11 294.22 361.77 292.77 364.91"/>
    <path d="M 288.53 325.3 C 291.91 325.41 294.88 325.1 298.07 326.24 C 302.86 327.95 306.42 330.57 310.35 333.8 C 313 335.98 315.05 338.04 317.17 340.73 C 320.61 345.08 323.05 349.29 326.72 353.59"/>
    <path d="M 289.24 369.15 L 289.94 369.86"/>
    <path d="M 294.19 174.67 L 297.02 180.33"/>
    <path d="M 305.5 129.41 L 309.75 130.83"/>
    <path d="M 310.45 131.54 C 311.23 135.86 312.58 139.32 313.57 143.6 C 314.8 148.97 314.8 154.45 311.87 159.12"/>
    <path d="M 326.72 354.3 C 327.11 357.79 327.42 360.73 328.28 364.14 C 328.95 366.8 329.75 368.96 330.59 371.57 C 331.58 374.61 332.6 377.09 333.43 380.18 C 334.2 383.06 334.97 385.42 335.91 388.24"/>
    <path d="M 327.43 353.59 C 331.1 354.24 334.25 354.63 337.73 355.96 C 340.31 356.96 342.26 358.25 344.7 359.56 C 348.68 361.7 352.2 363.54 356.2 365.87 C 360.02 368.11 363.21 369.99 366.85 372.52 C 371.55 375.78 375.49 378.68 379.66 382.46 C 382.24 384.8 384.29 386.88 386.63 389.47 C 390.07 393.29 392.37 397.04 394.61 401.68"/>
    <path d="M 360.66 99.01 C 362.84 96.73 364.59 94.76 366.68 92.39 C 368.75 90.03 370.51 88.09 372.56 85.71 C 374.77 83.15 376.74 81.12 378.96 78.56 C 381.31 75.85 383.14 73.48 385.41 70.72"/>
    <path d="M 377.64 128.71 C 380.66 127.68 383.21 126.89 386.26 125.94 C 390.4 124.65 393.91 123.7 398.07 122.47 C 400.7 121.69 402.88 121 405.51 120.24 C 408.15 119.47 410.35 118.84 412.99 118.1"/>
    <path d="M 377.64 163.36 C 380.67 163.79 383.22 164.13 386.2 164.86 C 389.38 165.63 392.06 166.17 395.25 166.92 C 398.42 167.66 401.05 168.36 404.21 169.17 C 407.35 169.97 409.92 170.82 412.99 171.85"/>
  </g>
</svg>
